<mxfile host="app.diagrams.net" modified="2022-12-02T14:26:34.511Z" agent="5.0 (Macintosh; Intel Mac OS X 10_15_7) AppleWebKit/537.36 (KHTML, like Gecko) Chrome/107.0.0.0 Safari/537.36" etag="cnMvT3QatSocyx6hgjqS" version="20.6.0" type="github">
  <diagram id="GQvSOQoS4jpRjefmd6cY" name="第 1 页">
    <mxGraphModel dx="926" dy="798" grid="1" gridSize="10" guides="1" tooltips="1" connect="1" arrows="1" fold="1" page="1" pageScale="1" pageWidth="827" pageHeight="1169" math="0" shadow="0">
      <root>
        <mxCell id="0" />
        <mxCell id="1" parent="0" />
        <mxCell id="RpjwFbfhzMhwfESfPYMx-2" value="" style="ellipse;whiteSpace=wrap;html=1;aspect=fixed;strokeWidth=3;" parent="1" vertex="1">
          <mxGeometry x="129" y="202" width="370" height="370" as="geometry" />
        </mxCell>
        <mxCell id="H4Xua0qROjXP9YTqeWaI-1" value="" style="ellipse;whiteSpace=wrap;html=1;aspect=fixed;strokeWidth=3;" vertex="1" parent="1">
          <mxGeometry x="184" y="258" width="260" height="260" as="geometry" />
        </mxCell>
        <mxCell id="H4Xua0qROjXP9YTqeWaI-2" value="" style="endArrow=none;html=1;rounded=0;strokeWidth=8;exitX=0.996;exitY=0.44;exitDx=0;exitDy=0;exitPerimeter=0;" edge="1" parent="1" source="H4Xua0qROjXP9YTqeWaI-1">
          <mxGeometry width="50" height="50" relative="1" as="geometry">
            <mxPoint x="444" y="390" as="sourcePoint" />
            <mxPoint x="500" y="370" as="targetPoint" />
          </mxGeometry>
        </mxCell>
        <mxCell id="H4Xua0qROjXP9YTqeWaI-3" value="" style="endArrow=none;html=1;rounded=0;strokeWidth=8;exitX=0.016;exitY=0.614;exitDx=0;exitDy=0;exitPerimeter=0;" edge="1" parent="1" source="RpjwFbfhzMhwfESfPYMx-2" target="H4Xua0qROjXP9YTqeWaI-1">
          <mxGeometry width="50" height="50" relative="1" as="geometry">
            <mxPoint x="140" y="430" as="sourcePoint" />
            <mxPoint x="184.88999999999987" y="410.0000000000001" as="targetPoint" />
          </mxGeometry>
        </mxCell>
        <mxCell id="H4Xua0qROjXP9YTqeWaI-4" value="&lt;span style=&quot;color: rgb(58, 58, 58); font-family: Lato, &amp;quot;PingFang TC&amp;quot;, &amp;quot;Helvetica Neue&amp;quot;, Helvetica, 微軟正黑體, 新細明體, Arial, sans-serif; text-align: left; background-color: rgb(255, 255, 255);&quot;&gt;&lt;b style=&quot;&quot;&gt;&lt;font style=&quot;font-size: 26px;&quot;&gt;ib_logfile0&amp;nbsp;&lt;/font&gt;&lt;/b&gt;&lt;/span&gt;" style="text;html=1;strokeColor=none;fillColor=none;align=center;verticalAlign=middle;whiteSpace=wrap;rounded=0;strokeWidth=3;" vertex="1" parent="1">
          <mxGeometry x="290" y="220" width="60" height="30" as="geometry" />
        </mxCell>
        <mxCell id="H4Xua0qROjXP9YTqeWaI-6" value="&lt;span style=&quot;color: rgb(58, 58, 58); font-family: Lato, &amp;quot;PingFang TC&amp;quot;, &amp;quot;Helvetica Neue&amp;quot;, Helvetica, 微軟正黑體, 新細明體, Arial, sans-serif; text-align: left; background-color: rgb(255, 255, 255);&quot;&gt;&lt;b style=&quot;&quot;&gt;&lt;font style=&quot;font-size: 26px;&quot;&gt;ib_logfile1&amp;nbsp;&lt;/font&gt;&lt;/b&gt;&lt;/span&gt;" style="text;html=1;strokeColor=none;fillColor=none;align=center;verticalAlign=middle;whiteSpace=wrap;rounded=0;strokeWidth=3;" vertex="1" parent="1">
          <mxGeometry x="284" y="527" width="60" height="30" as="geometry" />
        </mxCell>
        <mxCell id="H4Xua0qROjXP9YTqeWaI-7" value="" style="rounded=0;whiteSpace=wrap;html=1;strokeWidth=3;fontSize=26;" vertex="1" parent="1">
          <mxGeometry x="617" y="90" width="70" height="60" as="geometry" />
        </mxCell>
        <mxCell id="H4Xua0qROjXP9YTqeWaI-8" value="" style="rounded=0;whiteSpace=wrap;html=1;strokeWidth=3;fontSize=26;" vertex="1" parent="1">
          <mxGeometry x="687" y="90" width="70" height="60" as="geometry" />
        </mxCell>
        <mxCell id="H4Xua0qROjXP9YTqeWaI-9" value="" style="rounded=0;whiteSpace=wrap;html=1;strokeWidth=3;fontSize=26;" vertex="1" parent="1">
          <mxGeometry x="757" y="90" width="70" height="60" as="geometry" />
        </mxCell>
        <mxCell id="H4Xua0qROjXP9YTqeWaI-17" style="rounded=0;orthogonalLoop=1;jettySize=auto;html=1;strokeWidth=2;fontSize=26;exitX=0;exitY=1;exitDx=0;exitDy=0;" edge="1" parent="1" source="H4Xua0qROjXP9YTqeWaI-10" target="RpjwFbfhzMhwfESfPYMx-2">
          <mxGeometry relative="1" as="geometry" />
        </mxCell>
        <mxCell id="H4Xua0qROjXP9YTqeWaI-10" value="" style="rounded=0;whiteSpace=wrap;html=1;strokeWidth=3;fontSize=26;" vertex="1" parent="1">
          <mxGeometry x="547" y="90" width="70" height="60" as="geometry" />
        </mxCell>
        <mxCell id="H4Xua0qROjXP9YTqeWaI-12" value="" style="rounded=0;whiteSpace=wrap;html=1;dashed=1;strokeWidth=3;fontSize=26;fillColor=none;" vertex="1" parent="1">
          <mxGeometry x="827" y="90" width="303" height="60" as="geometry" />
        </mxCell>
        <mxCell id="H4Xua0qROjXP9YTqeWaI-13" value="" style="shape=curlyBracket;whiteSpace=wrap;html=1;rounded=1;labelPosition=left;verticalLabelPosition=middle;align=right;verticalAlign=middle;strokeWidth=2;fontSize=26;fillColor=none;rotation=90;" vertex="1" parent="1">
          <mxGeometry x="676.99" y="-71.4" width="20" height="280" as="geometry" />
        </mxCell>
        <mxCell id="H4Xua0qROjXP9YTqeWaI-14" value="&lt;b&gt;512 * 4 Meta Info&lt;/b&gt;" style="text;html=1;align=center;verticalAlign=middle;resizable=0;points=[];autosize=1;strokeColor=none;fillColor=none;fontSize=26;" vertex="1" parent="1">
          <mxGeometry x="571.99" y="20" width="230" height="40" as="geometry" />
        </mxCell>
        <mxCell id="H4Xua0qROjXP9YTqeWaI-15" value="" style="shape=curlyBracket;whiteSpace=wrap;html=1;rounded=1;labelPosition=left;verticalLabelPosition=middle;align=right;verticalAlign=middle;strokeWidth=2;fontSize=26;fillColor=none;rotation=-90;" vertex="1" parent="1">
          <mxGeometry x="970" y="20" width="20" height="300" as="geometry" />
        </mxCell>
        <mxCell id="H4Xua0qROjXP9YTqeWaI-16" value="&lt;b&gt;2048 .... N Data Block&lt;/b&gt;" style="text;html=1;align=center;verticalAlign=middle;resizable=0;points=[];autosize=1;strokeColor=none;fillColor=none;fontSize=26;" vertex="1" parent="1">
          <mxGeometry x="835" y="190" width="290" height="40" as="geometry" />
        </mxCell>
        <mxCell id="H4Xua0qROjXP9YTqeWaI-18" value="" style="rounded=0;whiteSpace=wrap;html=1;strokeWidth=3;fontSize=26;" vertex="1" parent="1">
          <mxGeometry x="627" y="354.4" width="70" height="60" as="geometry" />
        </mxCell>
        <mxCell id="H4Xua0qROjXP9YTqeWaI-19" value="" style="rounded=0;whiteSpace=wrap;html=1;strokeWidth=3;fontSize=26;" vertex="1" parent="1">
          <mxGeometry x="697" y="354.4" width="70" height="60" as="geometry" />
        </mxCell>
        <mxCell id="H4Xua0qROjXP9YTqeWaI-20" value="" style="rounded=0;whiteSpace=wrap;html=1;strokeWidth=3;fontSize=26;" vertex="1" parent="1">
          <mxGeometry x="767" y="354.4" width="70" height="60" as="geometry" />
        </mxCell>
        <mxCell id="H4Xua0qROjXP9YTqeWaI-21" value="" style="rounded=0;whiteSpace=wrap;html=1;strokeWidth=3;fontSize=26;" vertex="1" parent="1">
          <mxGeometry x="557" y="354.4" width="70" height="60" as="geometry" />
        </mxCell>
        <mxCell id="H4Xua0qROjXP9YTqeWaI-22" value="" style="rounded=0;whiteSpace=wrap;html=1;dashed=1;strokeWidth=3;fontSize=26;fillColor=none;" vertex="1" parent="1">
          <mxGeometry x="837" y="354.4" width="303" height="60" as="geometry" />
        </mxCell>
        <mxCell id="H4Xua0qROjXP9YTqeWaI-23" value="" style="shape=curlyBracket;whiteSpace=wrap;html=1;rounded=1;labelPosition=left;verticalLabelPosition=middle;align=right;verticalAlign=middle;strokeWidth=2;fontSize=26;fillColor=none;rotation=90;" vertex="1" parent="1">
          <mxGeometry x="686.99" y="193" width="20" height="280" as="geometry" />
        </mxCell>
        <mxCell id="H4Xua0qROjXP9YTqeWaI-24" value="&lt;b&gt;512 * 4 Meta Info&lt;/b&gt;" style="text;html=1;align=center;verticalAlign=middle;resizable=0;points=[];autosize=1;strokeColor=none;fillColor=none;fontSize=26;" vertex="1" parent="1">
          <mxGeometry x="581.99" y="284.4" width="230" height="40" as="geometry" />
        </mxCell>
        <mxCell id="H4Xua0qROjXP9YTqeWaI-25" value="" style="shape=curlyBracket;whiteSpace=wrap;html=1;rounded=1;labelPosition=left;verticalLabelPosition=middle;align=right;verticalAlign=middle;strokeWidth=2;fontSize=26;fillColor=none;rotation=-90;" vertex="1" parent="1">
          <mxGeometry x="980" y="284.4" width="20" height="300" as="geometry" />
        </mxCell>
        <mxCell id="H4Xua0qROjXP9YTqeWaI-26" value="&lt;b&gt;2048 .... N Data Block&lt;/b&gt;" style="text;html=1;align=center;verticalAlign=middle;resizable=0;points=[];autosize=1;strokeColor=none;fillColor=none;fontSize=26;" vertex="1" parent="1">
          <mxGeometry x="845" y="454.4" width="290" height="40" as="geometry" />
        </mxCell>
        <mxCell id="H4Xua0qROjXP9YTqeWaI-27" value="" style="curved=1;endArrow=classic;html=1;rounded=0;strokeWidth=3;fontSize=26;entryX=0.5;entryY=0;entryDx=0;entryDy=0;strokeColor=#FF0000;dashed=1;" edge="1" parent="1" target="H4Xua0qROjXP9YTqeWaI-23">
          <mxGeometry width="50" height="50" relative="1" as="geometry">
            <mxPoint x="827" y="152" as="sourcePoint" />
            <mxPoint x="777" y="202" as="targetPoint" />
            <Array as="points">
              <mxPoint x="790" y="190" />
            </Array>
          </mxGeometry>
        </mxCell>
        <mxCell id="H4Xua0qROjXP9YTqeWaI-28" value="" style="curved=1;endArrow=classic;html=1;rounded=0;strokeColor=#FF0000;strokeWidth=3;fontSize=26;entryX=0;entryY=0;entryDx=0;entryDy=0;exitX=1;exitY=1;exitDx=0;exitDy=0;dashed=1;" edge="1" parent="1" source="H4Xua0qROjXP9YTqeWaI-22" target="H4Xua0qROjXP9YTqeWaI-12">
          <mxGeometry width="50" height="50" relative="1" as="geometry">
            <mxPoint x="1140" y="390" as="sourcePoint" />
            <mxPoint x="1190" y="340" as="targetPoint" />
            <Array as="points">
              <mxPoint x="1220" y="300" />
              <mxPoint x="1290" y="-50" />
            </Array>
          </mxGeometry>
        </mxCell>
      </root>
    </mxGraphModel>
  </diagram>
</mxfile>
